<?xml version="1.0" standalone="no"?><!DOCTYPE svg PUBLIC "-//W3C//DTD SVG 1.1//EN" "http://www.w3.org/Graphics/SVG/1.1/DTD/svg11.dtd"><svg t="1569685321198" class="icon" viewBox="0 0 1024 1024" version="1.1" xmlns="http://www.w3.org/2000/svg" p-id="2076" xmlns:xlink="http://www.w3.org/1999/xlink" width="200" height="200"><defs><style type="text/css"></style></defs><path d="M512.206 511.461m-447.434 0a447.434 447.434 0 1 0 894.868 0 447.434 447.434 0 1 0-894.868 0Z" fill="#77B3D4" p-id="2077"></path><path d="M512.206 231.815c-169.617 0-307.611 137.993-307.611 307.611s137.993 307.611 307.611 307.611c48.931 0 97.63-11.777 140.833-34.068 13.723-7.08 19.11-23.943 12.03-37.673s-23.964-19.123-37.673-12.03c-35.816 18.475-74.568 27.842-115.19 27.842-138.779 0-251.682-112.903-251.682-251.682s112.903-251.682 251.682-251.682 251.682 112.903 251.682 251.682c0 42.514-10.514 83.648-30.614 120.42-24.51-19.396-61.439-58.667-61.439-119.252V417.688c0-15.443-12.521-27.965-27.965-27.965-15.443 0-27.965 12.521-27.965 27.965v1.157c-27.866-23.988-64.048-38.579-103.7-38.579-87.901 0-159.16 71.258-159.16 159.16s71.258 159.16 159.16 159.16c52.214 0 98.411-25.258 127.434-64.096 32.213 59.353 86.202 87.847 89.435 89.499 12.446 6.397 27.692 2.574 35.686-8.903 36.014-51.703 55.055-112.439 55.055-175.66 0.002-169.617-137.991-307.611-307.609-307.611z m0 410.841c-56.922 0-103.23-46.31-103.23-103.23 0-56.922 46.309-103.23 103.23-103.23s103.23 46.309 103.23 103.23c0.001 56.921-46.308 103.23-103.23 103.23z" fill="#231F20" p-id="2078"></path><path d="M512.206 819.072c-169.617 0-307.611-137.993-307.611-307.611S342.588 203.85 512.206 203.85s307.611 137.993 307.611 307.611c0 63.221-19.034 123.97-55.055 175.666-7.988 11.484-23.254 15.266-35.679 8.903-4.629-2.362-113.169-59.37-113.169-183.409v-122.89c0-15.443 12.521-27.965 27.965-27.965 15.443 0 27.965 12.521 27.965 27.965v122.891c0 60.585 36.922 99.87 61.446 119.259 20.086-36.772 30.6-77.9 30.6-120.42 0-138.772-112.91-251.682-251.682-251.682S260.525 372.69 260.525 511.461s112.91 251.682 251.682 251.682c40.622 0 79.374-9.367 115.19-27.842 13.696-7.1 30.586-1.707 37.673 12.03 7.087 13.723 1.693 30.6-12.03 37.673-43.203 22.284-91.909 34.068-140.834 34.068z" fill="#FFFFFF" p-id="2079"></path><path d="M512.206 408.231c56.921 0 103.23 46.31 103.23 103.23s-46.309 103.23-103.23 103.23-103.23-46.31-103.23-103.23 46.309-103.23 103.23-103.23m0-55.929c-87.901 0-159.16 71.258-159.16 159.16s71.258 159.16 159.16 159.16 159.16-71.258 159.16-159.16-71.258-159.16-159.16-159.16z" fill="#FFFFFF" p-id="2080"></path></svg>